PathFileType	4	(X/Y/Z)	7_coords_data.trc
DataRate	CameraRate	NumFrames	NumMarkers	Units	OrigDataRate	OrigDataStartFrame	OrigNumFrames
30.0	30.0	6	21	m	30.0	1	86
Frame#	Time	THUMB_TIP	THUMB_IP	THUMB_MCP	THUMB_CMC	INDEX_TIP	INDEX_DIP	INDEX_PIP	INDEX_MCP	MIDDLE_TIP	MIDDLE_DIP	MIDDLE_PIP	MIDDLE_MCP	RING_TIP	RING_DIP	RING_PIP	RING_MCP	PINKY_TIP	PINKY_DIP	PINKY_PIP	PINKY_MCP	WRIST
X1	Y1	Z1	X2	Y2	Z2	X3	Y3	Z3	X4	Y4	Z4	X5	Y5	Z5	X6	Y6	Z6	X7	Y7	Z7	X8	Y8	Z8	X9	Y9	Z9	X10	Y10	Z10	X11	Y11	Z11	X12	Y12	Z12	X13	Y13	Z13	X14	Y14	Z14	X15	Y15	Z15	X16	Y16	Z16	X17	Y17	Z17	X18	Y18	Z18	X19	Y19	Z19	X20	Y20	Z20	X21	Y21	Z21
0	0.0	0.023466299057006836	0.029853900909423827	0.9425050048828125	0.030340299606323243	0.03344129943847656	0.9669390258789062	0.028090200424194335	0.03410290145874023	0.9966530151367188	0.005986289978027344	0.046326698303222655	1.00775	0.03467720031738281	-0.07149530029296874	0.9368489990234375	0.034886600494384766	-0.05365219879150391	0.9489970092773438	0.029529499053955077	-0.037767898559570315	0.9629400024414062	0.022632400512695314	-0.009554360389709473	0.9841480102539063	0.03160449981689453	0.019840900421142577	0.9642340087890625	0.02585919952392578	0.009801600456237793	0.9470900268554687	0.012349300384521485	-0.011138400077819825	0.9447490234375	-0.006089719772338867	-0.01317739963531494	0.9839920043945313	0.015065299987792968	0.0312765007019043	0.9531649780273438	0.006308249950408935	0.015595600128173829	0.9433300170898438	-0.009892470359802246	-0.0040984201431274415	0.9425999755859376	-0.02460860061645508	-0.002187350034713745	0.9782839965820312	-0.05754270172119141	-0.03685369873046875	0.93797900390625	-0.04972560119628906	-0.021104000091552735	0.947385986328125	-0.041714099884033205	-0.007455570220947266	0.9554450073242188	-0.030024499893188478	0.01460949993133545	0.9685289916992188	-0.02055660057067871	0.03939870071411133	1.02931005859375
1	0.03333333333333333	0.02350270080566406	0.031263700485229494	0.9444030151367188	0.031194200515747072	0.03473960113525391	0.9668380126953126	0.028639900207519532	0.03586069869995117	0.99414501953125	0.006264999866485595	0.046007999420166014	1.0090599975585937	0.03504940032958984	-0.07146810150146485	0.9368289794921875	0.03409930038452148	-0.05365489959716797	0.9506160278320313	0.030894100189208986	-0.03747249984741211	0.9636199951171875	0.02143950080871582	-0.009116100311279298	0.985822998046875	0.030196399688720704	0.021847299575805664	0.9646099853515625	0.02627109909057617	0.01145740032196045	0.948073974609375	0.013922800064086914	-0.010234299659729005	0.9456519775390625	-0.004826200008392334	-0.012673600196838379	0.9833560180664063	0.014299300193786621	0.031697099685668945	0.9553629760742187	0.00669527006149292	0.017517000198364257	0.9444879760742187	-0.0084693603515625	-0.003183979988098144	0.943697021484375	-0.022653099060058593	-0.002542850017547607	0.9763150024414062	-0.056030399322509764	-0.03413140106201172	0.9364219970703125	-0.04847959899902344	-0.01871260070800781	0.9461640014648437	-0.04164500045776367	-0.006474520206451416	0.955041015625	-0.030677000045776368	0.013918700218200684	0.9700850219726562	-0.02139889907836914	0.04235390090942383	1.031010009765625
2	0.06666666666666667	0.023668800354003906	0.03163509941101074	0.9451829833984375	0.03135269927978516	0.03520560073852539	0.9674569702148438	0.028674900054931642	0.03629869842529297	0.9945770263671875	0.006126090049743653	0.04638000106811523	1.0095499877929688	0.03530830001831055	-0.07242500305175781	0.9389329833984374	0.0344379997253418	-0.05420669937133789	0.9522310180664062	0.03131290054321289	-0.03764170074462891	0.964885986328125	0.02190679931640625	-0.008595540046691894	0.9862069702148437	0.030476999282836915	0.022248300552368164	0.9650430297851562	0.02689780044555664	0.011768600463867188	0.9487219848632813	0.014821499824523925	-0.009994460105895995	0.9461279907226563	-0.004319270133972168	-0.012466300010681152	0.98389501953125	0.014586000442504883	0.031698299407958985	0.9560159912109375	0.007233059883117675	0.017638299942016603	0.944822998046875	-0.007805769920349121	-0.003016050100326538	0.9438140258789063	-0.022117500305175782	-0.002229160070419311	0.9763679809570313	-0.056000301361083984	-0.033453399658203126	0.9361950073242188	-0.048315799713134766	-0.01822170066833496	0.9460499877929688	-0.0413655014038086	-0.006108389854431152	0.9549869995117187	-0.030253299713134764	0.01409850025177002	0.9701069946289063	-0.02156920051574707	0.04245819854736328	1.0313499755859374
3	0.1	0.024034200668334962	0.031241800308227537	0.9457310180664062	0.03139970016479492	0.03495809936523438	0.968093017578125	0.028822700500488282	0.03599100112915039	0.9953740234375	0.00607673978805542	0.04617210006713867	1.0099400024414062	0.035200801849365235	-0.07318370056152344	0.9401329956054687	0.03439080047607422	-0.054808101654052734	0.9532589721679687	0.0313356990814209	-0.038126998901367185	0.9657940063476562	0.021839599609375	-0.008850110054016114	0.98693798828125	0.030544500350952148	0.021915599822998046	0.9658590087890625	0.026983299255371095	0.011468799591064453	0.949405029296875	0.01498519992828369	-0.01031719970703125	0.946676025390625	-0.004143430233001709	-0.0125516996383667	0.9840960083007813	0.01466100025177002	0.031493600845336915	0.9567420043945313	0.007298940181732177	0.01736039924621582	0.9454749755859375	-0.007801700115203858	-0.003329090118408203	0.9444609985351563	-0.022075000762939452	-0.0025345098972320546	0.9768989868164063	-0.056059600830078125	-0.03326679992675781	0.9360980224609375	-0.048370601654052735	-0.018153999328613283	0.94614501953125	-0.041356998443603514	-0.006123499870300293	0.9551589965820313	-0.030186599731445312	0.013897100448608398	0.9704979858398437	-0.021755300521850585	0.042274200439453125	1.0316800537109374
4	0.13333333333333333	0.023946100234985352	0.030558500289916992	0.9461799926757812	0.03130780029296875	0.03430939865112305	0.9688099975585938	0.028584999084472658	0.03558929824829102	0.9961329956054688	0.005898489952087403	0.04563370132446289	1.0102899780273438	0.03474700164794922	-0.07437729644775391	0.9413099975585938	0.03406769943237305	-0.05584579849243164	0.954291015625	0.031065099716186522	-0.0390630989074707	0.9664719848632812	0.021826299667358398	-0.009403800010681152	0.9873569946289062	0.03040500068664551	0.021284400939941408	0.9663099975585937	0.02704050064086914	0.010805899620056153	0.9498259887695313	0.015127699851989746	-0.010962800025939941	0.9470599975585937	-0.004206850051879883	-0.013175900459289552	0.9843560180664063	0.014552399635314942	0.03067620086669922	0.9570670166015625	0.007259230136871338	0.01659519958496094	0.9456400146484375	-0.007844289779663087	-0.003907589912414551	0.9446439819335938	-0.022106500625610353	-0.003067919969558716	0.9772459716796875	-0.05623910140991211	-0.03347320175170899	0.9359459838867188	-0.04850270080566406	-0.018438400268554686	0.9461079711914062	-0.041465801239013673	-0.0064972200393676755	0.9553709716796875	-0.03016510009765625	0.013514699935913086	0.970947998046875	-0.021954299926757813	0.041679000854492186	1.0318199462890625
5	0.16666666666666666	0.02373040008544922	0.02956999969482422	0.94635400390625	0.031102399826049804	0.033581199645996096	0.9692540283203125	0.028180999755859373	0.035140701293945316	0.996593017578125	0.005369319915771485	0.045284599304199216	1.010469970703125	0.035523101806640624	-0.07522930145263672	0.9426179809570312	0.034647899627685545	-0.05655110168457031	0.9554000244140625	0.031503000259399415	-0.039648399353027344	0.9675159912109375	0.021946699142456054	-0.009877220153808593	0.9879039916992187	0.0302544002532959	0.020492300033569336	0.9668800048828124	0.027190799713134765	0.00985142993927002	0.9503740234375	0.015467900276184082	-0.011977700233459473	0.94760400390625	-0.004032470226287842	-0.013760800361633302	0.9847249755859375	0.014519599914550782	0.02967970085144043	0.9573770141601563	0.007335609912872314	0.015518799781799316	0.9459760131835937	-0.007670370101928711	-0.0050469799041748045	0.9448720092773437	-0.021821800231933593	-0.003642299890518188	0.9770549926757812	-0.05627930068969727	-0.03388309860229492	0.9357109985351563	-0.048506900787353514	-0.018968299865722658	0.9459180297851563	-0.041432399749755856	-0.007106329917907715	0.9551309814453125	-0.03009079933166504	0.012807499885559083	0.9706859741210937	-0.022369300842285156	0.04114770126342773	1.031550048828125
